<?xml version="1.0" encoding="UTF-8"?>
<svg xmlns="http://www.w3.org/2000/svg" xmlns:xlink="http://www.w3.org/1999/xlink" width="18px" height="18px" style="margin-bottom: 5px;" viewBox="0 0 33 33" version="1.1">
<g id="surface1">
<path style=" stroke:none;fill-rule:nonzero;fill:rgb(100%,100%,100%);fill-opacity:1;" d="M 17.136719 32.976562 C 14.957031 32.976562 12.84375 32.53125 10.851562 31.660156 C 9.925781 31.25 8.875 30.722656 8.457031 30.269531 C 8.375 30.246094 8.238281 30.195312 8.042969 30.070312 C 7.886719 29.96875 7.511719 29.726562 7.191406 29.535156 C 6.179688 28.90625 5.363281 28.269531 4.53125 27.457031 C 3.199219 26.152344 2.398438 25.0625 1.566406 23.433594 C 0.410156 21.128906 -0.0664062 18.925781 0.0078125 16.289062 C 0.0664062 14.382812 0.433594 12.734375 1.183594 10.941406 C 1.378906 10.488281 2.03125 9.273438 2.308594 8.839844 C 2.425781 8.65625 2.523438 8.511719 2.628906 8.414062 C 2.667969 8.304688 2.734375 8.210938 2.785156 8.136719 C 3.167969 7.59375 3.714844 6.964844 4.367188 6.296875 C 4.382812 6.285156 5.691406 4.980469 6.3125 4.679688 C 6.402344 4.578125 6.570312 4.453125 6.851562 4.261719 C 7.109375 4.09375 7.527344 3.785156 7.765625 3.589844 C 9.070312 2.550781 9.707031 2.144531 10.996094 1.53125 C 12.71875 0.710938 14.433594 0.25 16.386719 0.0742188 C 16.730469 0.0429688 17.113281 0.0234375 17.519531 0.0234375 C 18.792969 0.0234375 20.183594 0.183594 21.351562 0.460938 C 21.382812 0.460938 23.710938 1.085938 24.355469 1.574219 C 24.941406 1.722656 26.363281 2.679688 26.386719 2.695312 C 27.914062 3.734375 29.171875 4.957031 30.234375 6.421875 C 30.476562 6.765625 30.609375 6.972656 30.671875 7.113281 C 30.910156 7.332031 31.140625 7.878906 31.1875 8.042969 C 31.785156 8.722656 32.421875 10.882812 32.429688 10.914062 C 32.851562 12.398438 33.007812 13.511719 33.007812 15.019531 C 33.007812 16.265625 32.894531 17.285156 32.640625 18.410156 C 32.558594 18.777344 32.445312 19.4375 32.394531 19.863281 C 32.273438 20.8125 31.988281 21.992188 31.660156 22.929688 C 31.359375 23.75 30.625 25.25 30.222656 25.84375 C 30.0625 26.070312 29.90625 26.320312 29.863281 26.386719 C 29.488281 27.058594 27.953125 28.699219 26.878906 29.566406 C 24.148438 31.761719 20.695312 32.976562 17.144531 32.976562 Z M 21.757812 30.386719 C 21.136719 30.867188 18.941406 31.402344 18.917969 31.410156 C 18.722656 31.453125 18.539062 31.5 18.359375 31.535156 C 18.671875 31.511719 18.941406 31.492188 19.144531 31.460938 C 20.492188 31.257812 21.539062 30.957031 22.777344 30.429688 C 23.773438 30.003906 25.082031 29.234375 25.757812 28.671875 C 25.953125 28.503906 26.070312 28.421875 26.160156 28.378906 C 26.25 28.296875 26.476562 28.09375 26.902344 27.675781 C 27.683594 26.914062 28.207031 26.296875 28.707031 25.542969 C 28.777344 25.449219 28.828125 25.367188 28.875 25.300781 C 28.753906 25.425781 28.632812 25.550781 28.507812 25.675781 C 28.492188 25.691406 27.113281 27.03125 26.507812 27.292969 C 26.304688 27.523438 25.921875 27.71875 25.667969 27.816406 C 25.488281 28.085938 25.007812 28.53125 23.808594 29.300781 C 23.414062 29.566406 22.265625 30.253906 21.75 30.378906 Z M 3.617188 21.171875 C 4.230469 23.617188 5.414062 25.683594 7.226562 27.5 C 8.082031 28.347656 8.679688 28.796875 9.4375 29.148438 C 11.234375 29.988281 13.273438 30.4375 15.339844 30.4375 C 16.484375 30.4375 17.625 30.296875 18.710938 30.035156 C 18.3125 30.054688 17.902344 30.0625 17.488281 30.0625 C 16.777344 30.0625 16.164062 30.035156 15.707031 29.96875 C 11.660156 29.417969 8.171875 27.476562 5.617188 24.359375 C 5.347656 24.019531 5.207031 23.808594 5.136719 23.664062 C 5.03125 23.582031 4.90625 23.433594 4.761719 23.179688 C 4.742188 23.136719 4.703125 23.070312 4.671875 22.996094 C 4.582031 22.914062 4.507812 22.8125 4.457031 22.71875 C 4.390625 22.609375 4.328125 22.496094 4.3125 22.386719 C 4.1875 22.234375 4.058594 22.023438 4.015625 21.851562 C 3.960938 21.789062 3.917969 21.722656 3.894531 21.671875 C 3.707031 21.339844 3.632812 21.113281 3.609375 20.953125 C 3.59375 20.929688 3.574219 20.902344 3.558594 20.871094 C 3.582031 20.972656 3.601562 21.070312 3.632812 21.171875 Z M 12.019531 27.59375 C 12.246094 27.625 12.558594 27.742188 12.703125 27.792969 C 14.351562 28.414062 15.824219 28.6875 17.636719 28.6875 C 17.816406 28.6875 17.996094 28.6875 18.175781 28.679688 C 19.347656 28.636719 20.207031 28.519531 21.242188 28.253906 C 21.242188 28.253906 21.75 28.128906 21.789062 28.113281 C 21.878906 28.09375 21.921875 28.078125 21.960938 28.054688 C 23.023438 27.652344 23.367188 27.523438 23.539062 27.476562 C 23.652344 27.390625 23.839844 27.289062 24.125 27.15625 C 24.425781 26.996094 24.796875 26.773438 24.933594 26.679688 C 25.472656 26.238281 26.582031 24.964844 27.171875 24.007812 C 27.300781 23.800781 27.390625 23.667969 27.472656 23.582031 C 27.503906 23.488281 27.546875 23.375 27.628906 23.246094 C 27.683594 23.15625 27.734375 23.070312 27.808594 23.003906 C 27.839844 22.886719 27.90625 22.730469 27.996094 22.535156 C 29.660156 19.128906 29.71875 14.976562 28.160156 11.417969 C 28.035156 11.132812 27.96875 10.949219 27.9375 10.824219 C 27.832031 10.683594 27.683594 10.4375 27.59375 10.269531 C 27.292969 9.734375 26.453125 8.503906 26.246094 8.277344 C 26.15625 8.1875 26.09375 8.101562 26.058594 8.027344 C 25.96875 7.953125 25.855469 7.835938 25.699219 7.652344 C 25.503906 7.441406 25.316406 7.230469 25.253906 7.175781 C 25.179688 7.125 25.128906 7.054688 25.089844 6.972656 C 24.992188 6.914062 24.867188 6.820312 24.703125 6.679688 C 23.9375 6.019531 23.359375 5.648438 22.769531 5.433594 L 22.558594 5.355469 C 22.378906 5.289062 22.125 5.191406 21.871094 5.105469 C 21.070312 4.8125 20.140625 4.578125 19.1875 4.4375 C 18.679688 4.359375 17.488281 4.304688 16.730469 4.304688 C 16.5 4.304688 16.296875 4.304688 16.171875 4.320312 C 14.980469 4.429688 13.730469 4.679688 12.65625 5.039062 C 11.917969 5.28125 10.304688 6.042969 9.738281 6.414062 C 9.203125 6.765625 8.671875 7.117188 8.554688 7.234375 C 8.476562 7.308594 8.382812 7.367188 8.285156 7.398438 C 8.179688 7.527344 8.007812 7.699219 7.746094 7.925781 C 7.414062 8.226562 6.996094 8.640625 6.800781 8.863281 C 6.800781 8.863281 6.277344 9.441406 6.222656 9.492188 C 6.210938 9.511719 6.195312 9.527344 6.179688 9.550781 C 6.132812 9.675781 6.035156 9.769531 5.984375 9.820312 C 5.496094 10.339844 4.441406 12.289062 4.007812 13.476562 L 3.78125 14.082031 L 3.78125 15.1875 C 3.796875 16.324219 3.902344 17.269531 4.105469 18.074219 C 4.523438 19.765625 5.152344 21.195312 6.082031 22.5625 C 6.230469 22.789062 6.34375 22.964844 6.417969 23.121094 C 6.5 23.179688 6.570312 23.257812 6.613281 23.332031 L 6.710938 23.441406 C 6.839844 23.597656 7.039062 23.824219 7.234375 24.050781 C 7.488281 24.351562 7.625 24.535156 7.699219 24.660156 C 7.960938 24.8125 8.261719 25.105469 8.386719 25.257812 C 8.492188 25.316406 8.65625 25.433594 8.914062 25.640625 C 9.691406 26.261719 10.367188 26.703125 11.257812 27.148438 C 11.675781 27.359375 11.910156 27.5 12.042969 27.601562 Z M 30.273438 13.328125 C 30.429688 13.964844 30.542969 14.617188 30.609375 15.269531 C 30.714844 16.289062 30.648438 18.34375 30.484375 19.277344 C 30.3125 20.214844 30.160156 20.796875 29.875 21.625 C 30.230469 20.980469 30.597656 20.199219 30.828125 19.589844 C 31.039062 19.042969 31.050781 19.011719 31.074219 18.164062 C 31.128906 16.515625 30.859375 14.890625 30.273438 13.328125 Z M 3.160156 10.164062 C 2.203125 11.828125 1.648438 13.59375 1.453125 15.578125 C 1.257812 17.519531 1.535156 19.546875 2.230469 21.421875 C 1.933594 20.242188 1.851562 19.457031 1.851562 17.914062 C 1.851562 16.367188 1.910156 15.828125 2.230469 14.382812 C 2.320312 13.972656 2.441406 13.308594 2.492188 12.902344 C 2.605469 12.039062 2.839844 11.089844 3.160156 10.164062 Z M 30.484375 10.589844 C 30.738281 10.882812 31.007812 11.433594 31.230469 11.921875 C 31.15625 11.601562 31.066406 11.285156 30.976562 10.992188 C 30.902344 10.75 30.851562 10.574219 30.828125 10.445312 C 30.753906 10.371094 30.699219 10.261719 30.679688 10.144531 C 30.566406 9.742188 29.816406 8.296875 29.21875 7.410156 C 29.03125 7.140625 28.933594 6.964844 28.875 6.847656 C 28.761719 6.761719 28.597656 6.605469 28.355469 6.320312 C 28.09375 6.019531 27.691406 5.589844 27.449219 5.355469 C 27.269531 5.179688 27.128906 5.039062 27.039062 4.90625 C 26.957031 4.878906 26.878906 4.828125 26.8125 4.761719 C 24.972656 3.164062 22.597656 2.058594 19.960938 1.582031 C 19.601562 1.515625 18.050781 1.449219 16.941406 1.449219 C 16.621094 1.449219 16.371094 1.449219 16.246094 1.472656 C 15.519531 1.574219 14.890625 1.683594 14.304688 1.824219 C 14.484375 1.816406 14.671875 1.808594 14.867188 1.800781 C 15.070312 1.800781 15.265625 1.792969 15.457031 1.792969 C 17.179688 1.792969 18.542969 2.007812 20.171875 2.542969 C 21.136719 2.847656 22.800781 3.605469 23.339844 3.984375 C 23.433594 4.058594 23.53125 4.117188 23.585938 4.144531 C 23.683594 4.183594 23.863281 4.285156 24.304688 4.585938 C 24.558594 4.753906 24.886719 4.964844 25.105469 5.105469 L 25.261719 5.207031 C 27.121094 6.296875 29.015625 8.144531 30.199219 10.035156 C 30.332031 10.253906 30.4375 10.445312 30.476562 10.605469 Z M 5.789062 7.84375 C 5.789062 7.84375 5.765625 7.917969 5.753906 7.953125 C 6.164062 7.265625 8.132812 5.785156 8.15625 5.769531 C 8.75 5.347656 10.523438 4.292969 11.121094 4.160156 C 11.707031 3.765625 13.527344 3.339844 14.386719 3.164062 C 14.328125 3.164062 14.28125 3.164062 14.246094 3.171875 C 14.140625 3.1875 13.773438 3.230469 13.445312 3.265625 C 12.761719 3.339844 11.414062 3.664062 10.621094 3.933594 C 10.335938 4.035156 9.675781 4.328125 9.152344 4.578125 C 8.386719 4.945312 8.179688 5.082031 7.855469 5.375 C 7.363281 5.828125 6.507812 6.820312 6.105469 7.40625 C 5.953125 7.625 5.855469 7.757812 5.78125 7.835938 Z M 5.789062 7.84375 "/>
<path style=" stroke:none;fill-rule:nonzero;fill:rgb(100%,100%,100%);fill-opacity:1;" d="M 20.050781 17.921875 C 19.292969 17.371094 18.320312 17.136719 17.519531 16.652344 C 17.339844 16.550781 17.179688 16.457031 17.023438 16.359375 C 18.125 15.6875 19.285156 14.941406 20.214844 14.03125 C 21.324219 13.066406 21.929688 11.367188 20.402344 10.339844 C 20.253906 10.230469 20.085938 10.144531 19.921875 10.054688 C 20.523438 9.617188 21.015625 9.117188 21.292969 8.523438 C 21.488281 7.769531 20.320312 7.484375 20.117188 8.230469 C 20.140625 8.167969 20.109375 8.253906 20.085938 8.285156 C 19.71875 8.808594 19.257812 9.199219 18.738281 9.527344 C 18.273438 9.359375 17.8125 9.199219 17.390625 9.039062 C 16.019531 8.457031 14.738281 7.585938 14.148438 6.144531 C 14.207031 8.027344 15.757812 9.367188 17.398438 10.238281 C 16.386719 10.683594 15.324219 11.058594 14.417969 11.675781 C 12.410156 13.203125 12.964844 14.933594 14.3125 16.359375 C 11.511719 18.996094 13.046875 20.734375 16.378906 22.300781 C 15.824219 22.636719 15.285156 23.011719 14.84375 23.488281 C 13.878906 24.394531 13.316406 25.992188 14.164062 27.183594 C 14.261719 27.324219 14.457031 27.375 14.605469 27.292969 C 14.769531 27.207031 14.835938 27 14.746094 26.839844 C 13.675781 24.085938 17.691406 23.28125 19.4375 22.167969 C 21.070312 21.398438 21.527344 19.128906 20.050781 17.929688 Z M 15.4375 17.363281 C 15.894531 17.714844 16.371094 18.03125 16.851562 18.300781 L 14.289062 18.300781 C 14.582031 17.941406 15.015625 17.636719 15.445312 17.363281 Z M 15.542969 15.34375 C 15.003906 14.894531 14.695312 14.507812 14.574219 14.15625 L 17.390625 14.15625 C 16.761719 14.558594 16.125 14.941406 15.546875 15.34375 Z M 19.765625 11.738281 L 16.84375 11.738281 C 17.421875 11.453125 18.035156 11.160156 18.632812 10.847656 C 19.089844 11.09375 19.535156 11.367188 19.765625 11.738281 Z M 15.355469 12.582031 L 19.359375 12.582031 C 19.128906 12.84375 18.867188 13.085938 18.582031 13.3125 L 14.636719 13.3125 C 14.777344 13.050781 15.03125 12.816406 15.355469 12.582031 Z M 13.945312 19.152344 L 18.574219 19.152344 C 18.800781 19.253906 19.023438 19.386719 19.097656 19.621094 C 19.136719 19.722656 19.152344 19.816406 19.160156 19.914062 L 14.261719 19.914062 C 14.171875 19.789062 14.082031 19.664062 14.011719 19.53125 C 13.96875 19.398438 13.953125 19.277344 13.953125 19.152344 Z M 16.90625 21.976562 C 16.296875 21.589844 15.644531 21.207031 15.09375 20.753906 L 18.746094 20.753906 C 18.6875 20.8125 18.621094 20.863281 18.542969 20.921875 C 18.050781 21.320312 17.480469 21.648438 16.910156 21.976562 Z M 16.90625 21.976562 "/>
</g>
</svg>