<svg xmlns="http://www.w3.org/2000/svg" id="Calque_2" data-name="Calque 2" viewBox="0 0 44.06 45"><g id="Calque_1-2" data-name="Calque 1"><g><path d="m22.88,45c-2.91,0-5.73-.61-8.39-1.8-1.24-.56-2.64-1.28-3.2-1.9-.11-.03-.29-.1-.55-.27-.21-.14-.71-.47-1.14-.73-1.35-.86-2.44-1.73-3.55-2.84-1.78-1.78-2.85-3.27-3.96-5.49C.55,28.82-.09,25.81.01,22.21c.08-2.6.57-4.85,1.57-7.3.26-.62,1.13-2.28,1.5-2.87.16-.25.29-.45.43-.58.05-.15.14-.28.21-.38.51-.74,1.24-1.6,2.11-2.51.02-.02,1.77-1.8,2.6-2.21.12-.14.34-.31.72-.57.34-.23.9-.65,1.22-.92,1.74-1.42,2.59-1.97,4.31-2.81,2.3-1.12,4.59-1.75,7.2-1.99.46-.04.97-.07,1.51-.07,1.7,0,3.56.22,5.12.6.04,0,3.15.85,4.01,1.52.78.2,2.68,1.51,2.71,1.53,2.04,1.42,3.72,3.09,5.14,5.09.32.47.5.75.58.94.32.3.63,1.05.69,1.27.8.93,1.65,3.88,1.66,3.92.56,2.03.77,3.55.77,5.61,0,1.7-.15,3.09-.49,4.63-.11.5-.26,1.4-.33,1.98-.16,1.3-.54,2.91-.98,4.19-.4,1.12-1.38,3.17-1.92,3.98-.21.31-.42.65-.48.74-.5.92-2.55,3.16-3.98,4.34-3.65,3-8.26,4.66-13,4.66h0Zm6.17-3.54c-.83.66-3.76,1.39-3.79,1.4-.26.06-.51.12-.75.17.42-.03.78-.06,1.05-.1,1.8-.28,3.2-.69,4.85-1.41,1.33-.58,3.08-1.63,3.98-2.4.26-.23.42-.34.54-.4.12-.11.42-.39.99-.96,1.04-1.04,1.74-1.88,2.41-2.91.09-.13.16-.24.22-.33-.16.17-.32.34-.49.51-.02.02-1.86,1.85-2.67,2.21-.27.31-.78.58-1.12.71-.24.37-.88.98-2.48,2.03-.53.36-2.06,1.3-2.75,1.47ZM4.83,28.88c.82,3.34,2.4,6.16,4.82,8.64,1.14,1.16,1.94,1.77,2.95,2.25,2.4,1.15,5.12,1.76,7.88,1.76,1.53,0,3.05-.19,4.5-.55-.53.03-1.08.04-1.63.04-.95,0-1.77-.04-2.38-.13-5.4-.75-10.06-3.4-13.47-7.66-.36-.46-.55-.75-.64-.95-.14-.11-.31-.31-.5-.66-.03-.06-.08-.15-.12-.25-.12-.11-.22-.25-.29-.38-.09-.15-.17-.3-.19-.45-.17-.21-.34-.5-.4-.73-.07-.09-.13-.18-.16-.25-.25-.45-.35-.76-.38-.98-.02-.03-.05-.07-.07-.11.03.14.06.27.1.41Zm11.22,8.77c.3.04.72.2.91.27,2.2.85,4.17,1.22,6.59,1.22.24,0,.48,0,.72-.01,1.56-.06,2.71-.22,4.09-.58,0,0,.68-.17.73-.19.12-.03.18-.05.23-.08,1.42-.55,1.88-.73,2.11-.79.15-.12.4-.26.78-.44.4-.22.9-.52,1.08-.65.72-.6,2.2-2.34,2.99-3.65.17-.28.29-.46.4-.58.04-.13.1-.28.21-.46.07-.12.14-.24.24-.33.04-.16.13-.37.25-.64,2.22-4.65,2.3-10.32.22-15.18-.17-.39-.26-.64-.3-.81-.14-.19-.34-.53-.46-.76-.4-.73-1.52-2.41-1.8-2.72-.12-.12-.2-.24-.25-.34-.12-.1-.27-.26-.48-.51-.26-.29-.51-.58-.59-.65-.1-.07-.17-.17-.22-.28-.13-.08-.3-.21-.52-.4-1.02-.9-1.79-1.41-2.58-1.7l-.28-.11c-.24-.09-.58-.22-.92-.34-1.07-.4-2.31-.72-3.58-.91-.68-.11-2.27-.18-3.28-.18-.31,0-.58,0-.75.02-1.59.15-3.26.49-4.69.98-.99.33-3.14,1.37-3.9,1.88-.71.48-1.42.96-1.58,1.12-.1.1-.23.18-.36.22-.14.18-.37.41-.72.72-.44.41-1,.98-1.26,1.28,0,0-.7.79-.77.86-.02.03-.04.05-.06.08-.06.17-.19.3-.26.37-.65.71-2.06,3.37-2.64,4.99l-.3.83v1.51c.02,1.55.16,2.84.43,3.94.56,2.31,1.4,4.26,2.64,6.13.2.31.35.55.45.76.11.08.2.19.26.29l.13.15c.17.21.44.52.7.83.34.41.52.66.62.83.35.21.75.61.92.82.14.08.36.24.7.52,1.04.85,1.94,1.45,3.13,2.06.56.29.87.48,1.05.62Zm24.37-19.48c.21.87.36,1.76.45,2.65.14,1.39.05,4.2-.17,5.47-.23,1.28-.43,2.08-.81,3.21.47-.88.96-1.95,1.27-2.78.28-.75.3-.79.33-1.95.07-2.25-.29-4.47-1.07-6.6ZM4.22,13.85c-1.28,2.27-2.02,4.68-2.28,7.39-.26,2.65.11,5.42,1.04,7.98-.4-1.61-.51-2.68-.51-4.79s.08-2.85.51-4.82c.12-.56.28-1.47.35-2.02.15-1.18.46-2.48.89-3.74Zm36.48.58c.34.4.7,1.15,1,1.82-.1-.44-.22-.87-.34-1.27-.1-.33-.17-.57-.2-.75-.1-.1-.17-.25-.2-.41-.15-.55-1.15-2.52-1.95-3.73-.25-.37-.38-.61-.46-.77-.15-.12-.37-.33-.69-.72-.35-.41-.89-1-1.21-1.32-.24-.24-.43-.43-.55-.61-.11-.04-.21-.11-.3-.2-2.46-2.18-5.63-3.69-9.15-4.34-.48-.09-2.55-.18-4.03-.18-.43,0-.76,0-.93.03-.97.14-1.81.29-2.59.48.24-.01.49-.02.75-.03.27,0,.53-.01.79-.01,2.3,0,4.12.29,6.29,1.02,1.29.42,3.51,1.45,4.23,1.97.13.1.26.18.33.22.13.05.37.19.96.6.34.23.78.52,1.07.71l.21.14c2.48,1.49,5.01,4.01,6.59,6.59.18.3.32.56.37.78ZM7.73,10.68s-.03.1-.05.15c.55-.94,3.18-2.96,3.21-2.98.79-.58,3.16-2.02,3.96-2.2.78-.54,3.21-1.12,4.36-1.36-.08,0-.14,0-.19.01-.14.02-.63.08-1.07.13-.91.1-2.71.54-3.77.91-.38.14-1.26.54-1.96.88-1.02.5-1.3.69-1.73,1.09-.66.62-1.8,1.97-2.34,2.77-.2.3-.33.48-.43.59Z" fill="#ffffff"/><path d="m26.77,24.44c-1.01-.75-2.31-1.07-3.38-1.73-.24-.14-.45-.27-.66-.4,1.47-.92,3.02-1.94,4.26-3.18,1.48-1.32,2.29-3.64.25-5.04-.2-.15-.42-.27-.64-.39.8-.6,1.46-1.28,1.83-2.09.26-1.03-1.3-1.42-1.57-.4.03-.09-.01.03-.04.07-.49.72-1.11,1.25-1.8,1.7-.62-.23-1.24-.45-1.8-.67-1.83-.79-3.54-1.98-4.33-3.95.08,2.57,2.15,4.4,4.34,5.59-1.35.61-2.77,1.12-3.98,1.96-2.68,2.09-1.94,4.45-.14,6.4-3.74,3.6-1.69,5.97,2.76,8.11-.74.46-1.46.97-2.05,1.62-1.29,1.24-2.04,3.42-.91,5.05.13.19.39.26.59.15.22-.12.31-.4.19-.62-1.43-3.76,3.93-4.86,6.26-6.38,2.18-1.05,2.79-4.15.82-5.79Zm-6.16-.76c.61.48,1.25.91,1.89,1.28h-3.42c.39-.49.97-.91,1.54-1.28Zm.14-2.76c-.72-.61-1.13-1.14-1.29-1.62h3.76c-.84.55-1.69,1.07-2.46,1.62Zm5.64-4.92h-3.9c.77-.39,1.59-.79,2.39-1.22.61.34,1.2.71,1.51,1.22Zm-5.89,1.15h5.35c-.31.36-.66.69-1.04,1h-5.27c.19-.36.53-.68.96-1Zm-1.88,8.97h6.18c.3.14.6.32.7.64.05.14.07.27.08.4h-6.54c-.12-.17-.24-.34-.33-.52-.06-.18-.08-.35-.08-.52Zm3.95,3.86c-.81-.53-1.68-1.05-2.42-1.67h4.88c-.08.08-.17.15-.27.23-.66.54-1.42.99-2.18,1.44Z" fill="#ffffff"/></g></g></svg>